<mxfile host="65bd71144e">
    <diagram name="Fetch" id="QPxHfX_x04sE-Ow-UlVb">
        <mxGraphModel dx="803" dy="520" grid="1" gridSize="10" guides="1" tooltips="1" connect="1" arrows="1" fold="1" page="1" pageScale="1" pageWidth="827" pageHeight="1169" background="#FFFFFF" math="0" shadow="0">
            <root>
                <mxCell id="6ujZ2PtzvDhvy63AlJKc-0"/>
                <mxCell id="6ujZ2PtzvDhvy63AlJKc-1" parent="6ujZ2PtzvDhvy63AlJKc-0"/>
                <mxCell id="JN7lyxFbwyB9rdm59-tr-0" value="" style="rounded=0;whiteSpace=wrap;html=1;fillColor=default;" parent="6ujZ2PtzvDhvy63AlJKc-1" vertex="1">
                    <mxGeometry x="40" y="40" width="480" height="240" as="geometry"/>
                </mxCell>
                <mxCell id="0" value="" style="rounded=0;whiteSpace=wrap;html=1;fillColor=#f5f5f5;fontColor=#333333;strokeColor=#666666;align=center;" vertex="1" parent="6ujZ2PtzvDhvy63AlJKc-1">
                    <mxGeometry x="80" y="110" width="120" height="120" as="geometry"/>
                </mxCell>
                <mxCell id="1" value="" style="rounded=0;whiteSpace=wrap;html=1;fillColor=#f5f5f5;fontColor=#333333;strokeColor=#666666;" vertex="1" parent="6ujZ2PtzvDhvy63AlJKc-1">
                    <mxGeometry x="360" y="110" width="120" height="120" as="geometry"/>
                </mxCell>
                <mxCell id="2" value="" style="endArrow=classic;html=1;exitX=1;exitY=0.25;exitDx=0;exitDy=0;entryX=0;entryY=0.25;entryDx=0;entryDy=0;" edge="1" parent="6ujZ2PtzvDhvy63AlJKc-1" source="0" target="1">
                    <mxGeometry width="50" height="50" relative="1" as="geometry">
                        <mxPoint x="240" y="120" as="sourcePoint"/>
                        <mxPoint x="350" y="120" as="targetPoint"/>
                    </mxGeometry>
                </mxCell>
                <mxCell id="7" value="" style="endArrow=classic;html=1;exitX=0;exitY=0.75;exitDx=0;exitDy=0;entryX=1;entryY=0.75;entryDx=0;entryDy=0;" edge="1" parent="6ujZ2PtzvDhvy63AlJKc-1" source="1" target="0">
                    <mxGeometry width="50" height="50" relative="1" as="geometry">
                        <mxPoint x="360" y="190" as="sourcePoint"/>
                        <mxPoint x="220" y="190" as="targetPoint"/>
                    </mxGeometry>
                </mxCell>
                <mxCell id="10" value="HTTP&lt;br&gt;Client" style="text;html=1;strokeColor=none;fillColor=none;align=center;verticalAlign=middle;whiteSpace=wrap;rounded=0;" vertex="1" parent="6ujZ2PtzvDhvy63AlJKc-1">
                    <mxGeometry x="140" y="125" width="60" height="30" as="geometry"/>
                </mxCell>
                <mxCell id="11" value="Local Server" style="text;html=1;strokeColor=none;fillColor=none;align=center;verticalAlign=middle;whiteSpace=wrap;rounded=0;fontStyle=1" vertex="1" parent="6ujZ2PtzvDhvy63AlJKc-1">
                    <mxGeometry x="80" y="90" width="120" height="20" as="geometry"/>
                </mxCell>
                <mxCell id="12" value="Remote Server" style="text;html=1;strokeColor=none;fillColor=none;align=center;verticalAlign=middle;whiteSpace=wrap;rounded=0;fontStyle=1" vertex="1" parent="6ujZ2PtzvDhvy63AlJKc-1">
                    <mxGeometry x="360" y="90" width="120" height="20" as="geometry"/>
                </mxCell>
                <mxCell id="13" value="HTTP&lt;br&gt;Server" style="text;html=1;strokeColor=none;fillColor=none;align=center;verticalAlign=middle;whiteSpace=wrap;rounded=0;" vertex="1" parent="6ujZ2PtzvDhvy63AlJKc-1">
                    <mxGeometry x="140" y="185" width="60" height="30" as="geometry"/>
                </mxCell>
                <mxCell id="14" value="HTTP&lt;br&gt;Client" style="text;html=1;strokeColor=none;fillColor=none;align=center;verticalAlign=middle;whiteSpace=wrap;rounded=0;" vertex="1" parent="6ujZ2PtzvDhvy63AlJKc-1">
                    <mxGeometry x="360" y="185" width="60" height="30" as="geometry"/>
                </mxCell>
                <mxCell id="15" value="HTTP&lt;br&gt;Server" style="text;html=1;strokeColor=none;fillColor=none;align=center;verticalAlign=middle;whiteSpace=wrap;rounded=0;" vertex="1" parent="6ujZ2PtzvDhvy63AlJKc-1">
                    <mxGeometry x="360" y="125" width="60" height="30" as="geometry"/>
                </mxCell>
                <mxCell id="16" value="HTTP&lt;br&gt;Request" style="text;html=1;strokeColor=none;fillColor=none;align=center;verticalAlign=middle;whiteSpace=wrap;rounded=0;" vertex="1" parent="6ujZ2PtzvDhvy63AlJKc-1">
                    <mxGeometry x="250" y="110" width="60" height="30" as="geometry"/>
                </mxCell>
                <mxCell id="18" value="HTTP&lt;br&gt;Request" style="text;html=1;strokeColor=none;fillColor=none;align=center;verticalAlign=middle;whiteSpace=wrap;rounded=0;" vertex="1" parent="6ujZ2PtzvDhvy63AlJKc-1">
                    <mxGeometry x="250" y="170" width="60" height="30" as="geometry"/>
                </mxCell>
            </root>
        </mxGraphModel>
    </diagram>
</mxfile>
